HIERARCHY
ROOT Hips
{
    OFFSET   0.000000   0.000000   0.000000
    CHANNELS 6 Xposition Yposition Zposition Zrotation Xrotation Yrotation
    JOINT Chest
    {
        OFFSET   0.000000   8.007230   0.000000
        CHANNELS 3 Zrotation Xrotation Yrotation
        JOINT Chest2
        {
            OFFSET   0.000000  22.077100   0.000000
            CHANNELS 3 Zrotation Xrotation Yrotation
            JOINT Neck
            {
                OFFSET   0.000000  23.254800  -0.000021
                CHANNELS 3 Zrotation Xrotation Yrotation
                JOINT Head
                {
                    OFFSET   0.000000  14.370000   1.956610
                    CHANNELS 3 Zrotation Xrotation Yrotation
                    End Site
                    {
                        OFFSET   0.000000  19.566000   0.000000
                    }
                }
            }
            JOINT LeftCollar
            {
                OFFSET   3.911900  19.017000  -0.467063
                CHANNELS 3 Zrotation Xrotation Yrotation
                JOINT LeftShoulder
                {
                    OFFSET  10.383700   0.000000   0.000000
                    CHANNELS 3 Zrotation Xrotation Yrotation
                    JOINT LeftElbow
                    {
                        OFFSET  26.662100   0.001529   0.000325
                        CHANNELS 3 Zrotation Xrotation Yrotation
                        JOINT LeftWrist
                        {
                            OFFSET  28.869000  -0.000011  -0.000096
                            CHANNELS 3 Zrotation Xrotation Yrotation
                            JOINT LeftFinger0
                            {
                                OFFSET   2.044650  -2.323460   3.252850
                                CHANNELS 3 Zrotation Xrotation Yrotation
                                JOINT LeftFinger01
                                {
                                    OFFSET   3.088130   0.000000   0.000000
                                    CHANNELS 3 Zrotation Xrotation Yrotation
                                    JOINT LeftFinger02
                                    {
                                        OFFSET   2.639460   0.000000   0.000000
                                        CHANNELS 3 Zrotation Xrotation Yrotation
                                        End Site
                                        {
                                            OFFSET   2.582190   0.000000   0.000000
                                        }
                                    }
                                }
                            }
                            JOINT LeftFinger1
                            {
                                OFFSET   8.364480   0.000000   3.252850
                                CHANNELS 3 Zrotation Xrotation Yrotation
                                JOINT LeftFinger11
                                {
                                    OFFSET   4.646930   0.000000   0.000000
                                    CHANNELS 3 Zrotation Xrotation Yrotation
                                    JOINT LeftFinger12
                                    {
                                        OFFSET   2.323460   0.000000   0.000000
                                        CHANNELS 3 Zrotation Xrotation Yrotation
                                        End Site
                                        {
                                            OFFSET   2.273050   0.000000   0.000000
                                        }
                                    }
                                }
                            }
                            JOINT LeftFinger2
                            {
                                OFFSET   8.364480   0.000016   1.078090
                                CHANNELS 3 Zrotation Xrotation Yrotation
                                JOINT LeftFinger21
                                {
                                    OFFSET   5.111620   0.000000   0.000000
                                    CHANNELS 3 Zrotation Xrotation Yrotation
                                    JOINT LeftFinger22
                                    {
                                        OFFSET   2.788160   0.000017   0.000000
                                        CHANNELS 3 Zrotation Xrotation Yrotation
                                        End Site
                                        {
                                            OFFSET   2.727660   0.000000   0.000000
                                        }
                                    }
                                }
                            }
                            JOINT LeftFinger3
                            {
                                OFFSET   7.899780   0.000015  -1.078090
                                CHANNELS 3 Zrotation Xrotation Yrotation
                                JOINT LeftFinger31
                                {
                                    OFFSET   4.646920   0.000000   0.000000
                                    CHANNELS 3 Zrotation Xrotation Yrotation
                                    JOINT LeftFinger32
                                    {
                                        OFFSET   2.323470   0.000000   0.000000
                                        CHANNELS 3 Zrotation Xrotation Yrotation
                                        End Site
                                        {
                                            OFFSET   2.273050   0.000000   0.000000
                                        }
                                    }
                                }
                            }
                            JOINT LeftFinger4
                            {
                                OFFSET   7.435090   0.000000  -3.252850
                                CHANNELS 3 Zrotation Xrotation Yrotation
                                JOINT LeftFinger41
                                {
                                    OFFSET   3.717550   0.000000   0.000000
                                    CHANNELS 3 Zrotation Xrotation Yrotation
                                    JOINT LeftFinger42
                                    {
                                        OFFSET   1.858760   0.000000   0.000000
                                        CHANNELS 3 Zrotation Xrotation Yrotation
                                        End Site
                                        {
                                            OFFSET   1.818440   0.000000   0.000000
                                        }
                                    }
                                }
                            }
                        }
                    }
                }
            }
            JOINT RightCollar
            {
                OFFSET  -3.911900  19.017000  -0.467062
                CHANNELS 3 Zrotation Xrotation Yrotation
                JOINT RightShoulder
                {
                    OFFSET -10.383700   0.000015   0.000000
                    CHANNELS 3 Zrotation Xrotation Yrotation
                    JOINT RightElbow
                    {
                        OFFSET -26.662100   0.001341   0.000385
                        CHANNELS 3 Zrotation Xrotation Yrotation
                        JOINT RightWrist
                        {
                            OFFSET -28.869000   0.000025  -0.000080
                            CHANNELS 3 Zrotation Xrotation Yrotation
                            JOINT RightFinger0
                            {
                                OFFSET  -2.044650  -2.323490   3.252850
                                CHANNELS 3 Zrotation Xrotation Yrotation
                                JOINT RightFinger01
                                {
                                    OFFSET  -3.088130   0.000000   0.000000
                                    CHANNELS 3 Zrotation Xrotation Yrotation
                                    JOINT RightFinger02
                                    {
                                        OFFSET  -2.639460   0.000000   0.000000
                                        CHANNELS 3 Zrotation Xrotation Yrotation
                                        End Site
                                        {
                                            OFFSET  -2.582190   0.000000   0.000000
                                        }
                                    }
                                }
                            }
                            JOINT RightFinger1
                            {
                                OFFSET  -8.364480   0.000000   3.252850
                                CHANNELS 3 Zrotation Xrotation Yrotation
                                JOINT RightFinger11
                                {
                                    OFFSET  -4.646930   0.000000   0.000000
                                    CHANNELS 3 Zrotation Xrotation Yrotation
                                    JOINT RightFinger12
                                    {
                                        OFFSET  -2.323470   0.000000   0.000000
                                        CHANNELS 3 Zrotation Xrotation Yrotation
                                        End Site
                                        {
                                            OFFSET  -2.273050   0.000000   0.000000
                                        }
                                    }
                                }
                            }
                            JOINT RightFinger2
                            {
                                OFFSET  -8.364480   0.000000   1.078090
                                CHANNELS 3 Zrotation Xrotation Yrotation
                                JOINT RightFinger21
                                {
                                    OFFSET  -5.111610   0.000000   0.000000
                                    CHANNELS 3 Zrotation Xrotation Yrotation
                                    JOINT RightFinger22
                                    {
                                        OFFSET  -2.788160   0.000000   0.000000
                                        CHANNELS 3 Zrotation Xrotation Yrotation
                                        End Site
                                        {
                                            OFFSET  -2.727660   0.000000   0.000000
                                        }
                                    }
                                }
                            }
                            JOINT RightFinger3
                            {
                                OFFSET  -7.899780   0.000000  -1.078090
                                CHANNELS 3 Zrotation Xrotation Yrotation
                                JOINT RightFinger31
                                {
                                    OFFSET  -4.646920   0.000000   0.000000
                                    CHANNELS 3 Zrotation Xrotation Yrotation
                                    JOINT RightFinger32
                                    {
                                        OFFSET  -2.323470   0.000000   0.000000
                                        CHANNELS 3 Zrotation Xrotation Yrotation
                                        End Site
                                        {
                                            OFFSET  -2.273050   0.000000   0.000000
                                        }
                                    }
                                }
                            }
                            JOINT RightFinger4
                            {
                                OFFSET  -7.435090   0.000000  -3.252850
                                CHANNELS 3 Zrotation Xrotation Yrotation
                                JOINT RightFinger41
                                {
                                    OFFSET  -3.717550   0.000000   0.000000
                                    CHANNELS 3 Zrotation Xrotation Yrotation
                                    JOINT RightFinger42
                                    {
                                        OFFSET  -1.858770   0.000000   0.000000
                                        CHANNELS 3 Zrotation Xrotation Yrotation
                                        End Site
                                        {
                                            OFFSET  -1.818440   0.000000   0.000000
                                        }
                                    }
                                }
                            }
                        }
                    }
                }
            }
        }
    }
    JOINT LeftHip
    {
        OFFSET   9.783010   0.000000   0.000000
        CHANNELS 3 Zrotation Xrotation Yrotation
        JOINT LeftKnee
        {
            OFFSET   0.000070 -41.789100   0.000028
            CHANNELS 3 Zrotation Xrotation Yrotation
            JOINT LeftAnkle
            {
                OFFSET   0.000087 -41.133200  -0.000100
                CHANNELS 3 Zrotation Xrotation Yrotation
                JOINT LeftToe
                {
                    OFFSET   0.000000  -6.358960  14.674500
                    CHANNELS 3 Zrotation Xrotation Yrotation
                    End Site
                    {
                        OFFSET   0.000000   0.000000   3.913200
                    }
                }
            }
        }
    }
    JOINT RightHip
    {
        OFFSET  -9.783020   0.000000   0.000000
        CHANNELS 3 Zrotation Xrotation Yrotation
        JOINT RightKnee
        {
            OFFSET   0.000044 -41.789100  -0.000870
            CHANNELS 3 Zrotation Xrotation Yrotation
            JOINT RightAnkle
            {
                OFFSET  -0.000090 -41.133200  -0.000245
                CHANNELS 3 Zrotation Xrotation Yrotation
                JOINT RightToe
                {
                    OFFSET   0.000000  -6.358960  14.674500
                    CHANNELS 3 Zrotation Xrotation Yrotation
                    End Site
                    {
                        OFFSET   0.000000   0.000000   3.913200
                    }
                }
            }
        }
    }
}
MOTION
Frames: 6
Frame Time:   0.016667
 -1.237270  89.956600   0.007974  -0.904852  -1.760030  -5.791750   0.109882   2.030500  -0.431142   0.235284   4.060120  -0.866997   1.173610   0.552503  -0.010622   1.923240   1.118900   8.817460  -4.897650   0.232015   4.440800 -72.211200  17.656600  -1.476660  -3.046520  -4.981960 -17.945100  11.286800  -3.287040  10.810700  42.262600  30.795000 -65.403500 -23.314400   0.002348   0.001095  -6.657210  -0.003210  -0.004321 -28.365000   4.802380  -8.812870 -23.514600   0.002160  -0.002812 -16.461400   0.001448   0.007160 -28.490200  -1.341120   2.469480 -36.350100  -0.003304  -0.000999 -24.210400  -0.001907  -0.000624 -27.633600  -1.303990   2.489280 -30.008800  -0.006592   0.005543 -19.985900  -0.002109   0.003533 -30.388600  -1.422170   2.423740 -45.623300  -0.005569  -0.001070 -30.387700   0.002362  -0.002008   8.952200   2.103480   6.756040  69.607800   5.623630  -3.038360  -0.273404  -4.226920  18.317700 -15.811700 -16.955700  -1.695160 -39.334200  37.596900  74.598600  32.050400   0.010546  -0.006515  11.033100   0.004884  -0.006057  30.371500   0.742167   1.263570  24.856200  -0.004448  -0.009558  17.399300  -0.005922  -0.006315  27.922200  -1.639190  -3.087910  31.782000   0.000000  -0.000160  21.166800  -0.010720  -0.011423  28.045200  -4.027120  -7.509810  34.299400  -0.006180   0.000198  22.843400  -0.007408  -0.007613  36.364900  -5.073550  -6.848630  55.002900  -0.000279  -0.003478  36.631900  -0.008046  -0.000057   1.188700   3.834120   4.470770   0.567995   1.432330  16.569400  -6.159270  -5.033900   6.131730  -0.000000   0.000000  -0.000000   1.397850   3.217350  -8.593520   0.513029   1.096010  -7.689110  -9.671050   0.208014   2.420140   0.000000   0.000000   0.000000
 -1.237160  89.956700   0.015127  -0.909479  -1.761300  -5.812510   0.109874   2.031810  -0.431092   0.235281   4.062740  -0.866907   1.172250   0.543505  -0.010627   1.923340   1.100500   8.831860  -4.902440   0.223288   4.446190 -72.204500  17.625100  -1.460100  -3.046510  -4.949550 -17.969600  11.292500  -3.289170  10.816500  42.265100  30.800900 -65.378300 -23.323200   0.002358   0.001101  -6.661590  -0.003214  -0.004317 -28.368900   4.789730  -8.789280 -23.514600   0.002153  -0.002812 -16.461100   0.001452   0.007158 -28.489100  -1.353410   2.492140 -36.350000  -0.003308  -0.001000 -24.210100  -0.001909  -0.000626 -27.632400  -1.315950   2.512120 -30.008400  -0.006597   0.005544 -19.985600  -0.002115   0.003534 -30.383000  -1.435040   2.446070 -45.617900  -0.005574  -0.001067 -30.382800   0.002361  -0.002007   8.960660   2.087660   6.756240  69.587800   5.645860  -3.032170  -0.270618  -4.246020  18.284800 -15.818800 -16.955600  -1.695160 -39.313200  37.585800  74.611000  32.056000   0.010546  -0.006527  11.033100   0.004882  -0.006074  30.393000   0.742167   1.263570  24.873700  -0.004451  -0.009554  17.411600  -0.005927  -0.006310  27.927600  -1.639190  -3.087910  31.817200   0.000000  -0.000157  21.190200  -0.010717  -0.011427  28.047800  -4.018010  -7.491360  34.332800  -0.006173   0.000200  22.865700  -0.007399  -0.007602  36.382800  -5.063330  -6.830590  55.027700  -0.000269  -0.003469  36.648400  -0.008050  -0.000060   1.191140   3.841690   4.474890   0.570052   1.432430  16.569500  -6.157780  -5.038010   6.144160   0.000000   0.000000   0.000000   1.399330   3.227230  -8.593570   0.518841   1.090340  -7.689100  -9.670940   0.202453   2.440140  -0.000000   0.000000   0.000000
 -1.236980  89.956700   0.026933  -0.917288  -1.766300  -5.845630   0.109788   2.035720  -0.430980   0.235131   4.070550  -0.866689   1.169580   0.528611  -0.010631   1.921930   1.070130   8.856510  -4.910640   0.208884   4.455300 -72.195600  17.593600  -1.437040  -3.044240  -4.903580 -17.993700  11.305900  -3.293420  10.828000  42.267600  30.806700 -65.353100 -23.342400   0.002372   0.001108  -6.671190  -0.003219  -0.004312 -28.374400   4.772280  -8.756520 -23.514600   0.002139  -0.002812 -16.460800   0.001462   0.007153 -28.487600  -1.370270   2.523200 -36.349900  -0.003320  -0.001005 -24.209800  -0.001914  -0.000631 -27.630700  -1.332350   2.543420 -30.007900  -0.006608   0.005546 -19.985300  -0.002130   0.003536 -30.377000  -1.452750   2.476650 -45.612600  -0.005584  -0.001061 -30.378000   0.002355  -0.002003   8.973410   2.062570   6.756400  69.557400   5.684950  -3.014630  -0.268085  -4.275220  18.233500 -15.825800 -16.955600  -1.695170 -39.283500  37.576800  74.629200  32.066200   0.010547  -0.006539  11.033100   0.004881  -0.006090  30.423200   0.742167   1.263570  24.898300  -0.004457  -0.009548  17.428800  -0.005939  -0.006292  27.935000  -1.639190  -3.087910  31.865500  -0.000000  -0.000146  21.222400  -0.010713  -0.011436  28.050300  -4.008900  -7.472900  34.371900  -0.006154   0.000211  22.891700  -0.007379  -0.007577  36.400700  -5.053120  -6.812550  55.052400  -0.000246  -0.003450  36.664900  -0.008059  -0.000066   1.195290   3.856750   4.480310   0.571928   1.433130  16.569600  -6.155060  -5.045560   6.167220   0.000000   0.000000   0.000000   1.401950   3.244670  -8.593690   0.529253   1.081990  -7.689140  -9.671050   0.193201   2.475600  -0.000000   0.000000   0.000000
 -1.236760  89.956700   0.036106  -0.923867  -1.776320  -5.870220   0.108911   2.042560  -0.430784   0.233424   4.084230  -0.866267   1.166740   0.515892  -0.010620   1.917240   1.044360   8.875380  -4.917990   0.196626   4.459630 -72.193700  17.596400  -1.427340  -3.038590  -4.881270 -17.983200  11.330800  -3.296370  10.843500  42.252200  30.826900 -65.382300 -23.365800   0.002378   0.001087  -6.682910  -0.003216  -0.004325 -28.377500   4.766050  -8.747260 -23.515800   0.002119  -0.002817 -16.461600   0.001472   0.007144 -28.487300  -1.373620   2.529400 -36.350200  -0.003338  -0.001016 -24.209900  -0.001924  -0.000639 -27.630500  -1.335590   2.549680 -30.009000  -0.006626   0.005549 -19.986100  -0.002154   0.003539 -30.377800  -1.456270   2.482790 -45.614300  -0.005596  -0.001054 -30.379100   0.002343  -0.001996   8.981580   2.045780   6.755360  69.536600   5.716050  -2.986560  -0.269539  -4.296070  18.203200 -15.812800 -16.945400  -1.699440 -39.271600  37.581700  74.640900  32.076400   0.010571  -0.006533  11.037500   0.004890  -0.006085  30.436000   0.734720   1.250510  24.908000  -0.004467  -0.009541  17.435600  -0.005955  -0.006260  27.937400  -1.643870  -3.096530  31.882500   0.000000  -0.000130  21.233800  -0.010712  -0.011445  28.049400  -4.012630  -7.479790  34.378500  -0.006128   0.000230  22.896100  -0.007350  -0.007544  36.399600  -5.057690  -6.818910  55.052200  -0.000215  -0.003424  36.664800  -0.008067  -0.000074   1.198730   3.873230   4.481870   0.570969   1.435910  16.569600  -6.152350  -5.053010   6.191720  -0.000000   0.000000   0.000000   1.405050   3.260210  -8.596090   0.539959   1.076940  -7.696930  -9.675900   0.185716   2.510180  -0.000000   0.000000   0.000000
 -1.236630  89.956700   0.045191  -0.930322  -1.789860  -5.890640   0.107357   2.051280  -0.430651   0.230369   4.101700  -0.865981   1.163210   0.505338  -0.010593   1.911110   1.023110   8.899420  -4.924910   0.186599   4.470560 -72.193500  17.615800  -1.424270  -3.034320  -4.872810 -17.962900  11.349400  -3.303950  10.855900  42.240700  30.839800 -65.419100 -23.397800   0.002384   0.001066  -6.698910  -0.003210  -0.004340 -28.388100   4.763950  -8.739620 -23.524500   0.002094  -0.002823 -16.467200   0.001485   0.007132 -28.487000  -1.377610   2.536680 -36.352000  -0.003361  -0.001030 -24.210400  -0.001938  -0.000649 -27.630500  -1.339520   2.557000 -30.017000  -0.006647   0.005553 -19.991300  -0.002187   0.003542 -30.385700  -1.460910   2.489710 -45.626200  -0.005612  -0.001044 -30.387100   0.002326  -0.001985   8.986670   2.029250   6.750300  69.525300   5.758550  -2.947550  -0.275251  -4.307690  18.171900 -15.793400 -16.921300  -1.707630 -39.272100  37.593100  74.657700  32.086700   0.010614  -0.006527  11.043400   0.004898  -0.006079  30.441500   0.721550   1.227590  24.913000  -0.004478  -0.009533  17.439100  -0.005975  -0.006215  27.937800  -1.648560  -3.105150  31.886400   0.000000  -0.000102  21.236400  -0.010710  -0.011461  28.048400  -4.016360  -7.486670  34.379500  -0.006095   0.000259  22.896700  -0.007313  -0.007500  36.398500  -5.062270  -6.825270  55.050900  -0.000167  -0.003393  36.663900  -0.008083  -0.000079   1.202420   3.894050   4.482200   0.569389   1.438080  16.569100  -6.149550  -5.061400   6.216810  -0.000000   0.000000  -0.000000   1.408590   3.277670  -8.601080   0.550182   1.074540  -7.708490  -9.683290   0.178484   2.543830  -0.000000   0.000000   0.000000
 -1.236660  89.956500   0.054400  -0.936060  -1.805180  -5.903870   0.105782   2.059970  -0.431270   0.227303   4.119080  -0.867222   1.158340   0.500560  -0.010549   1.904550   1.013620   8.932030  -4.929960   0.183832   4.495090 -72.192700  17.677200  -1.431560  -3.034310  -4.898440 -17.933200  11.330700  -3.321390  10.857700  42.108100  30.674800 -65.384800 -23.439300   0.002396   0.001094  -6.719660  -0.003202  -0.004341 -28.447200   4.763570  -8.730430 -23.573500   0.002061  -0.002829 -16.501300   0.001505   0.007116 -28.486500  -1.384490   2.549240 -36.377800  -0.003389  -0.001049 -24.227300  -0.001954  -0.000660 -27.636400  -1.346310   2.569600 -30.055100  -0.006673   0.005560 -20.016700  -0.002226   0.003545 -30.425000  -1.468950   2.501620 -45.688000  -0.005634  -0.001027 -30.428300   0.002307  -0.001970   8.984130   2.012270   6.739520  69.528200   5.823200  -2.900000  -0.284071  -4.309170  18.130300 -15.781000 -16.892900  -1.716280 -39.285600  37.620600  74.681700  32.097200   0.010656  -0.006551  11.045100   0.004895  -0.006097  30.443500   0.706103   1.201190  24.916900  -0.004492  -0.009522  17.441800  -0.005993  -0.006157  27.936200  -1.647430  -3.103100  31.883000   0.000000  -0.000042  21.234100  -0.010709  -0.011500  28.049200  -4.013430  -7.481460  34.371600  -0.006058   0.000296  22.891500  -0.007265  -0.007447  36.389100  -5.057550  -6.821320  55.035600  -0.000083  -0.003357  36.653600  -0.008126  -0.000039   1.206980   3.921100   4.477350   0.566726   1.437950  16.565600  -6.146840  -5.070770   6.238610  -0.000000   0.000000   0.000000   1.411820   3.296580  -8.607310   0.556472   1.074540  -7.716010  -9.688680   0.171881   2.571470  -0.000000   0.000000  -0.000000
